<svg xmlns="http://www.w3.org/2000/svg" viewBox="0 0 1000 1000">
  <g id="stadia-logo-mark">
    <path id="Fill-1" fill="#fff" d="M128.56,395.11a15.15,15.15,0,0,0-6.35,12.27h0v.19a15.14,15.14,0,0,0,1.28,6h0l72.32,163.84a15.17,15.17,0,0,0,19,8.16h0c47.35-16.88,211.32-70.3,317.43-41.49h0s-106.45,6.16-202.7,81.64h0a15.11,15.11,0,0,0-4.45,18h0c7.81,17.66,23.5,53.15,32.38,73.21h0l12.46,29.25a9.5,9.5,0,0,0,16.64,1.49h0c22.46-33.82,60.33-50.72,96.7-65.47h0a555.78,555.78,0,0,1,115.82-33.06h0A503.25,503.25,0,0,1,727.2,643.8h0a15.17,15.17,0,0,0,15.85-10.54h0l32.67-104.41a15.11,15.11,0,0,0-5.55-16.73h0c-36.43-26.39-180.73-115-434.5-79.42h0S552.22,308.31,827.13,445h0a15.15,15.15,0,0,0,21.17-9.05h0l28.8-92.08a15.32,15.32,0,0,0,.69-4.3h0v-.44a15.12,15.12,0,0,0-7.65-12.92h0c-34.51-19.52-151.33-78-312-78h0c-123.17,0-272.1,34.35-429.56,147"/>
  </g>
</svg>